<svg xmlns="http://www.w3.org/2000/svg" width="192" height="192" viewBox="0 0 192 192">
  <g fill="none" fill-rule="evenodd">
    <circle cx="96" cy="96" r="96" fill="#FF5A5F"/>
    <path fill="#FFF" d="M43,123.463623 L54.3215768,120.547789 C55.1680498,126.796006 60.1410788,131.482168 67.2302905,131.482168 C76.9647303,131.482168 81.8319502,126.587732 81.8319502,116.278174 L81.8319502,110.96719 C79.6099585,114.924394 74.4253112,118.360913 66.9128631,118.360913 C53.1576763,118.360913 43.1058091,107.947218 43.1058091,93.6804565 C43.1058091,80.1426534 52.7344398,69 66.9128631,69 C74.9543568,69 79.9273859,72.2282454 82.1493776,76.3937233 L82.1493776,69.9372325 L94,69.9372325 L94,115.861626 C94,129.399429 86.9107884,142 67.5477178,142 C53.8983402,142 44.3755187,133.669044 43,123.463623 Z M69.1031746,108 C76.7380952,108 82,102.501818 82,93.9490909 C82,85.4981818 76.531746,80 69.1031746,80 C61.468254,80 56,85.4981818 56,93.9490909 C56,102.603636 61.2619048,108 69.1031746,108 Z M151,70 L130.954455,121 L118.780198,121 L98,70 L111.433663,70 L124.972277,106.443532 L138.19604,70 L151,70 Z"/>
  </g>
</svg>
