<svg xmlns="http://www.w3.org/2000/svg" width="22" height="20" viewBox="0 0 22 20">
  <path fill="#717171" d="M11.000112,7.87683698 C9.16489289,7.87683698 7.67650801,9.38759725 7.67650801,11.2511943 C7.67650801,13.1147914 9.16489289,14.6255517 11.000112,14.6255517 C12.8353311,14.6255517 14.323716,13.1147914 14.323716,11.2511943 C14.323716,9.38759725 12.8353311,7.87683698 11.000112,7.87683698 Z M20.4318522,3.65871969 L16.3531892,2.97625006 L15.7426444,0.454979753 C15.6364432,0.0875836025 15.4417411,0 15.070485,0 L6.92973896,0 C6.55848294,0 6.35773135,0.0966831976 6.2575796,0.454979753 L5.64703485,2.97625006 L1.56837184,3.65871969 C0.707559754,3.81523272 0,4.37167296 0,5.25114882 L0,18.4075709 C0,19.2870467 0.701958426,20 1.56837184,20 L20.4316281,20 C21.2980415,20 21.9999999,19.2870467 21.9999999,18.4075709 L21.9999999,5.25114882 C22.000224,4.37167296 21.2854945,3.82228491 20.4318522,3.65871969 Z M11.000112,17.1659311 C7.78293324,17.1659311 5.17473087,14.5177215 5.17473087,11.2511943 C5.17473087,7.98466718 7.78293324,5.33645753 11.000112,5.33645753 C14.2172908,5.33645753 16.8254931,7.98466718 16.8254931,11.2511943 C16.8254931,14.5177215 14.2172908,17.1659311 11.000112,17.1659311 Z"/>
</svg>
