<svg xmlns="http://www.w3.org/2000/svg" width="10" height="10" viewBox="0 0 10 10">
  <path fill="#717171" d="M8.85168221,0.402528156 C8.31411124,-0.134176052 7.44350461,-0.134176052 6.90593363,0.402528156 L6.41880846,0.892447791 L1.23381508,6.07513697 L1.2228066,6.0861464 C1.22005448,6.08889876 1.22005448,6.09165111 1.21730236,6.09165111 C1.21179812,6.09990819 1.20354176,6.10816526 1.19803752,6.11642233 C1.19803752,6.11917469 1.1952854,6.11917469 1.1952854,6.12192705 C1.18978116,6.13018412 1.18702904,6.13568883 1.1815248,6.14394591 C1.17877268,6.14669826 1.17877268,6.14945062 1.17602056,6.15220298 C1.17326844,6.16046005 1.17051632,6.16596477 1.1677642,6.17422184 C1.1677642,6.1769742 1.16501209,6.1769742 1.16501209,6.17972655 L0.0146260795,9.63943994 C-0.019104246,9.73793988 0.00656805578,9.84705659 0.0806769506,9.9201804 C0.132729827,9.97152645 0.202965098,10.0002166 0.276077444,9.99999877 C0.305924793,9.9994638 0.335557401,9.9948333 0.364145273,9.98623698 L3.82080753,8.83299919 C3.82355965,8.83299919 3.82355965,8.83299919 3.82631177,8.83024683 C3.83503927,8.82774513 3.84337574,8.8240397 3.85108084,8.8192374 C3.85316777,8.8189485 3.85510183,8.81798139 3.85658508,8.81648504 C3.86484144,8.81098033 3.87584992,8.80547561 3.88410628,8.7999709 C3.89236264,8.79446618 3.900619,8.78620911 3.90887536,8.7807044 C3.91162748,8.77795204 3.9143796,8.77795204 3.9143796,8.77519968 C3.91713172,8.77244732 3.92263595,8.76969497 3.92538807,8.76419025 L9.59750663,3.09158144 C10.1341645,2.553964 10.1341645,1.68328212 9.59750663,1.14566468 L8.85168221,0.402528156 Z M1.66849215,6.66666667 L3.33333333,8.33333333 L0.833333333,9.16666667 L1.66849215,6.66666667 Z M9.33645808,2.61635322 L9.03866354,2.91666667 L7.08333333,0.963225946 L7.38393726,0.662912502 C7.71299185,0.334584722 8.24606084,0.334584722 8.57511543,0.662912502 L9.33926746,1.42632612 C9.665781,1.75639274 9.6645264,2.28782893 9.33645808,2.61635322 Z"/>
</svg>
