<svg xmlns="http://www.w3.org/2000/svg" width="24" height="24" viewBox="0 0 24 24">
  <path fill="#717171" d="M11.5086405,1.02882817 C9.79550355,3.49745117 8.79887651,6.4517808 8.79887651,9.62654721 C8.79887651,11.0682346 9.0043952,12.4644648 9.38920141,13.790397 C9.14864869,13.5162311 8.89266132,13.250114 8.62123931,12.9930784 C6.8426417,11.3087532 4.65225253,10.2520673 2.35696807,9.82302068 C2.81002864,11.9966463 3.92585774,14.0709365 5.70445534,15.7552616 C6.12789511,16.1562575 6.57467512,16.5216789 7.0406541,16.8515259 C6.80082446,16.834574 6.55854575,16.8259461 6.31413909,16.8259461 C4.33357463,16.8259461 2.49274837,17.3925247 0.96253308,18.3638662 C2.49274837,19.3352076 4.33357463,19.9017863 6.31413909,19.9017863 C6.96550332,19.9017863 7.60175336,19.8405047 8.21681097,19.7236976 C7.2404273,20.6953874 6.62395215,21.8723611 6.36738552,23.1032778 C7.72286848,22.8499038 9.01640539,22.2258767 10.0667583,21.2311965 C10.7709914,20.5642904 11.205411,19.8595475 11.550397,19.0424669 C11.8953829,19.8595475 12.3298025,20.5642904 13.0340356,21.2311965 C14.0843885,22.2258767 15.3779254,22.8499038 16.7334084,23.1032778 C16.4768418,21.8723611 15.8603666,20.6953874 14.883983,19.7236976 C15.4990406,19.8405047 16.1352906,19.9017863 16.7866548,19.9017863 C18.7672193,19.9017863 20.6080456,19.3352076 22.1382608,18.3638662 C20.6080456,17.3925247 18.7672193,16.8259461 16.7866548,16.8259461 C16.5422482,16.8259461 16.2999695,16.834574 16.0601398,16.8515259 C16.5261188,16.5216789 16.9728988,16.1562575 17.3963386,15.7552616 C19.1749362,14.0709365 20.2907653,11.9966463 20.7438259,9.82302068 C18.4485414,10.2520673 16.2581522,11.3087532 14.4795546,12.9930784 C14.2081326,13.250114 13.9521452,13.5162311 13.7115925,13.790397 C14.0963987,12.4644648 14.3019174,11.0682346 14.3019174,9.62654721 C14.3019174,6.4517808 13.3052904,3.49745117 11.5921534,1.02882817 L11.5086405,1.02882817 Z M20.5669674,8.87687533 C21.2402895,8.75101442 21.8258788,9.34885295 21.6861077,10.0194256 C21.2232705,12.2399558 20.1399254,14.2998352 18.5170304,15.9975031 C20.0004333,16.2297162 21.4062472,16.7591236 22.6541017,17.5512296 C23.2496913,17.9292947 23.2496913,18.7984377 22.6541017,19.1765027 C20.9677705,20.2469425 18.9929674,20.8376316 16.928043,20.8634363 C17.2754371,21.506452 17.5269895,22.1934591 17.6756902,22.9068729 C17.8154613,23.5774455 17.229872,24.175284 16.5565499,24.0494231 C14.9853199,23.7557206 13.5336808,23.0300017 12.3721958,21.9300798 C12.0617473,21.6360864 11.7909411,21.3308877 11.550397,21.0046705 C11.3098529,21.3308877 11.0390466,21.6360864 10.7285982,21.9300798 C9.56711312,23.0300017 8.11547403,23.7557206 6.54424398,24.0494231 C5.87092189,24.175284 5.28533261,23.5774455 5.4251037,22.9068729 C5.5738044,22.1934591 5.82535684,21.506452 6.17275093,20.8634363 C4.10782649,20.8376316 2.13302341,20.2469425 0.446692231,19.1765027 C-0.14889741,18.7984377 -0.14889741,17.9292947 0.446692231,17.5512296 C1.69454669,16.7591236 3.1003606,16.2297162 4.5837635,15.9975031 C2.96086853,14.2998352 1.8775234,12.2399558 1.41468624,10.0194256 C1.27491515,9.34885295 1.86050443,8.75101442 2.53382653,8.87687533 C4.48239869,9.24111268 6.31576781,10.0163703 7.9098144,11.1601738 C7.86096605,10.6527239 7.83634343,10.1411338 7.83634343,9.62654721 C7.83634343,6.3291546 8.84889637,3.17323804 10.717867,0.480059367 C10.8977256,0.220883914 11.193171,0.0662950924 11.5086405,0.0662950924 L11.5921534,0.0662950924 C11.907623,0.0662950924 12.2030683,0.220883914 12.3829269,0.480059367 C14.2518976,3.17323804 15.2644505,6.3291546 15.2644505,9.62654721 C15.2644505,10.1411338 15.2398279,10.6527239 15.1909795,11.1601738 C16.7850261,10.0163703 18.6183952,9.24111268 20.5669674,8.87687533 Z"/>
</svg>
