<svg xmlns="http://www.w3.org/2000/svg" width="22" height="20" viewBox="0 0 22 20">
  <path fill="#717171" d="M11.4430941,1.76338867 C13.7756408,-0.58791024 17.5598664,-0.587637875 19.8920111,1.76325568 L20.0557975,1.92835878 C22.6477009,4.54109944 22.6479804,8.76984725 20.0571583,11.3814978 L11.8654178,19.6390946 C11.3877254,20.1206272 10.6106804,20.1199763 10.1336338,19.6390946 L1.94189328,11.3814978 C-0.647630722,8.77115574 -0.647418299,4.53985855 1.94325414,1.92835872 L2.10704043,1.76325573 C4.43807308,-0.586516843 8.22443837,-0.586874354 10.5559575,1.76338867 L10.9995258,2.21052293 L11.4430941,1.76338867 Z M18.96433,10.3100278 C20.9657133,8.29255468 20.9654969,5.01845559 18.9629692,2.99982886 L18.7991828,2.83472576 C17.0680876,1.08971366 14.2673494,1.08951208 12.5359224,2.83485868 L11.7066263,3.6708218 C11.3170831,4.06349655 10.6800807,4.06159366 10.2924253,3.67082177 L9.46312922,2.83485868 C7.73274071,1.090559 4.92986286,1.09082365 3.19986868,2.83472581 L3.0360824,2.99982879 C1.03479326,5.01720705 1.03462876,8.29385553 3.03472159,10.3100278 L10.9995258,18.3388638 L18.96433,10.3100278 Z"/>
</svg>
