<svg xmlns="http://www.w3.org/2000/svg" width="13" height="12" viewBox="0 0 13 12">
  <path fill="#717171" d="M8.3106482,4.45835359 L11.9704658,4.45835359 C12.4736172,4.57124867 12.872045,5.01770985 12.9505507,5.58784712 C12.9985887,5.99814954 12.8661956,6.41840691 12.5771364,6.77476698 C12.7670868,7.37630531 12.6055714,8.09253265 12.1244288,8.68287664 C12.1010966,8.71148882 12.0738365,8.73633358 12.043774,8.75690291 C12.1263101,9.303667 11.951095,9.90338937 11.5379081,10.4103681 C11.4969319,10.4528999 11.4537032,10.4866375 11.408102,10.510811 C11.2760691,11.0522573 10.9978997,11.4669089 10.4525757,11.9036485 C10.3932289,11.9551723 10.308536,11.9883419 10.2211913,11.9920914 C9.40120319,11.9889829 8.74629768,11.9903805 7.83635058,11.9954761 C6.12974974,12.0050329 5.8128401,12.0022164 5.39363153,11.9595979 C5.00786534,11.9203639 4.73284115,11.8383124 4.47154476,11.6848221 C4.35383109,11.6156747 4.25181477,11.5448285 4.08881354,11.4188784 C3.93682196,11.5954468 3.71245828,11.7043966 3.46588584,11.7043966 L0.826533439,11.7043966 C0.372560519,11.7043966 0,11.3386274 0,10.8885548 L0,5.7060732 C0,5.25599722 0.372559564,4.89022705 0.826533439,4.89022705 L3.46588584,4.89022705 C3.71015962,4.89022705 3.93123065,4.99669066 4.08245678,5.16702321 C4.9825042,3.86844625 5.24959086,2.93220003 5.31554154,1.22511349 L5.31565025,1.22263249 C5.35096564,0.501916483 5.92184355,-0.0623079826 6.71228624,0.00553769854 C7.16748831,0.0685543882 7.57162393,0.361922815 7.84804108,0.839774352 C8.34688294,1.70224853 8.5132211,3.029591 8.3106482,4.45835359 Z M6.08554908,1.2818024 C6.00926742,3.30223441 5.60874036,4.46888609 4.29241914,6.18809491 L4.29241914,10.5967192 C4.3931625,10.6761988 4.54459827,10.7955978 4.59221016,10.8321659 C4.70852096,10.921498 4.79178362,10.9799759 4.86588948,11.0235048 C5.02974985,11.1197788 5.18199763,11.1644033 5.47425674,11.1941234 C5.84017741,11.2313287 6.16849802,11.2342925 7.84376928,11.2265988 C8.7073441,11.2226328 9.3268278,11.2215117 10.0692315,11.2240616 C10.3448538,10.9889561 10.4950835,10.7948403 10.5870685,10.5527341 L10.3575282,10.5527341 C10.1505504,10.5556422 9.96880485,10.3797075 9.96880485,10.1687657 C9.96880485,9.95761203 10.1510265,9.78091835 10.3619877,9.78483877 L11.0318205,9.78480377 C11.2519924,9.45773867 11.3329246,9.11224946 11.2780549,8.82524019 L10.3575282,8.82524019 C10.1505504,8.82814829 9.96880485,8.65221358 9.96880485,8.44127183 C9.96880485,8.23011816 10.1510265,8.05342448 10.3619877,8.0573449 L11.6183451,8.05730716 C11.8385156,7.73024287 11.9194472,7.38475479 11.8645776,7.09774632 L10.3575282,7.09774632 C10.1505504,7.10065442 9.96880485,6.92471971 9.96880485,6.71377796 C9.96880485,6.50262429 10.1510265,6.32593061 10.3619877,6.32985103 L11.9412533,6.32981212 C12.1297353,6.11807687 12.2098253,5.8906096 12.1857248,5.6844599 C12.1627799,5.48829904 12.0508948,5.32393171 11.8726099,5.2262903 L7.86480652,5.2262903 C7.62787585,5.22315363 7.4423676,4.9999216 7.48714972,4.7695343 C7.76151571,3.36446468 7.62555023,1.99351669 7.18049836,1.22409721 L7.16944808,1.2025541 C7.06391797,0.968436852 6.80429333,0.789958837 6.56190814,0.777525485 C6.31912014,0.765071472 6.14483647,0.916267752 6.08554908,1.2818024 Z M0.826533439,5.65816377 C0.793105648,5.65816377 0.77328245,5.67762581 0.77328245,5.7060732 L0.77328245,10.8885548 C0.77328245,10.916998 0.793105769,10.9364599 0.826533439,10.9364599 L3.46588584,10.9364599 C3.49931345,10.9364599 3.51913669,10.916998 3.51913669,10.8885548 L3.51913669,5.7060732 C3.51913669,5.67762574 3.49931357,5.65816377 3.46588584,5.65816377 L0.826533439,5.65816377 Z"/>
</svg>
