<svg xmlns="http://www.w3.org/2000/svg" width="24" height="26" viewBox="0 0 24 26">
  <path fill="#717171" d="M21.2440373,2.72192695 L23.0340159,4.50545461 C24.3219947,5.79573647 24.3219947,7.88537297 23.0340159,9.17565482 L9.42093138,22.789916 C9.41432629,22.8031273 9.40111612,22.8097329 9.39451103,22.8163386 C9.39451103,22.8229443 9.38790594,22.8229443 9.38130086,22.8295499 C9.36148559,22.8427612 9.34167033,22.8625782 9.32185507,22.8757895 C9.30203981,22.8890008 9.27561946,22.9022122 9.2558042,22.9154235 C9.25224439,22.9190147 9.24760265,22.9213358 9.24259403,22.9220291 C9.22410179,22.9335547 9.20409424,22.9424477 9.18314824,22.9484518 C9.17654316,22.9550574 9.17654316,22.9550574 9.16993807,22.9550574 L0.873948654,25.7228281 C0.805337763,25.7434593 0.734219504,25.7545725 0.662585866,25.7558564 C0.487116236,25.7563791 0.318551584,25.6875228 0.193624681,25.5642923 C0.0157633339,25.3887952 -0.0458501903,25.1269151 0.0351025907,24.8905152 L2.796029,16.5872031 C2.796029,16.5805974 2.80263409,16.5805974 2.80263409,16.5739918 C2.80923918,16.5541748 2.81584427,16.5409635 2.82244935,16.5211465 C2.82905444,16.5145409 2.82905444,16.5079352 2.83565953,16.5013296 C2.8488697,16.4815126 2.85547479,16.4683013 2.86868496,16.4484843 C2.86868496,16.4418786 2.87529005,16.4418786 2.87529005,16.435273 C2.88850022,16.415456 2.90831548,16.395639 2.92152566,16.375822 C2.92813075,16.375822 2.92813075,16.3692164 2.93473583,16.3626107 L2.96115618,16.3361881 L15.4051403,3.89773407 L16.5742407,2.72192695 C17.8644111,1.43383685 19.953867,1.43383685 21.2440373,2.72192695 Z M4.00438116,17.7558594 L2,23.7558594 L8,21.7558594 L4.00438116,17.7558594 Z M22.4074994,8.03510711 C23.1948634,7.24664882 23.1978744,5.97120195 22.4142419,5.17904206 L20.580277,3.34684938 C19.790546,2.55886271 18.5111804,2.55886271 17.7214494,3.34684938 L17,4.06760165 L21.6927925,8.75585938 L22.4074994,8.03510711 Z M6.34561328,5.58984375 L6.34561328,9.27246094 L4.44717578,9.27246094 L4.44717578,5.58984375 L0.746980469,5.58984375 L0.746980469,3.67382812 L4.44717578,3.67382812 L4.44717578,0 L6.34561328,0 L6.34561328,3.67382812 L10.0370195,3.67382812 L10.0370195,5.58984375 L6.34561328,5.58984375 Z"/>
</svg>
