<svg xmlns="http://www.w3.org/2000/svg" width="24" height="24" viewBox="0 0 24 24">
  <path fill="#666" d="M10.542103,0.999890742 C10.508475,0.999892489 10.508475,0.999892489 10.4547965,1.00030927 C10.4007283,1.00149598 10.4026568,1.00143644 10.3752382,1.00313412 C7.9924807,1.09571166 5.85902776,3.17838547 5.69987144,5.52000633 C5.55082419,7.72071679 6.20408647,9.54401446 7.49596616,11.2980433 C7.52154686,11.3326227 7.52154686,11.3326227 7.54742023,11.3669233 C7.59762038,11.433185 7.92832381,11.8479372 8.01881516,11.972759 C8.37183426,12.4597061 8.52820404,12.8950503 8.47413364,13.4509261 C8.39302035,14.2808224 7.8714928,14.722899 6.9265739,15.09743 C6.82118857,15.1392009 6.48272533,15.2662151 6.46834986,15.2717392 C6.43077605,15.2862365 6.43077605,15.2862365 6.39486236,15.3003728 C6.30464804,15.3361671 6.21135311,15.375012 6.11513785,15.4167683 C5.91071897,15.5054838 5.69534583,15.606342 5.46924449,15.7183823 C5.09675632,15.9029619 5.02706785,15.940364 4.30559797,16.3343609 C2.34304577,17.4065593 1.39290936,18.1681317 1.14214645,19.0818447 C0.583116598,21.1190091 1.89074844,22.0937142 4.84858827,22.6346281 C6.35171795,22.9087317 7.96476553,22.9959731 10.3366783,22.9998907 C10.3924874,22.9998847 10.3924874,22.9998847 10.449322,22.999852 C10.5050759,22.9998841 10.5050759,22.9998841 10.5604735,22.9997262 C12.931812,22.9960383 14.5460004,22.9087702 16.0490939,22.6346732 C19.0071809,22.0937142 20.3148128,21.1190091 19.7557864,19.0818573 C19.50502,18.1681317 18.5548836,17.4065593 16.5924076,16.3344025 C15.8708615,15.940364 15.8011731,15.9029619 15.4286849,15.7183823 C15.2025836,15.606342 14.9872104,15.5054838 14.7827915,15.4167683 C14.6865763,15.375012 14.5932813,15.3361671 14.5033757,15.3004952 C14.4671533,15.2862365 14.4671533,15.2862365 14.4295795,15.2717392 C14.4152041,15.2662151 14.0767408,15.1392009 13.9713555,15.09743 C13.0264366,14.722899 12.504909,14.2808224 12.4237732,13.4506952 C12.3697253,12.8950503 12.5260951,12.4597061 12.8791142,11.972759 C12.9696056,11.8479372 13.300309,11.433185 13.3505092,11.3669233 C13.3763825,11.3326227 13.3763825,11.3326227 13.4021018,11.297855 C14.6938312,9.54403039 15.3470933,7.72074992 15.198062,5.5200663 C15.0388947,3.17878346 12.9056915,1.09533848 10.542103,0.999890742 Z M16.1957642,5.4523143 C16.3624607,7.91361917 15.6291292,9.96039521 14.2074195,11.8906985 C14.1773952,11.9312838 14.1773952,11.9312838 14.1475902,11.9707957 C14.0843949,12.0542103 13.7628772,12.4574422 13.6887385,12.5597075 C13.4667756,12.8658784 13.3918877,13.0743716 13.4190532,13.3536506 C13.4529386,13.7003424 13.7097971,13.9180703 14.3398297,14.167792 C14.4349959,14.2055124 14.7662855,14.3298346 14.7882788,14.338286 C14.8299427,14.3543606 14.8299427,14.3543606 14.8718675,14.3708642 C14.9722265,14.4106836 15.075255,14.4535812 15.1809051,14.4994322 C15.4018882,14.5953363 15.6322932,14.7032339 15.8726925,14.8223593 C16.2622966,15.0154203 16.3357963,15.0548679 17.0717746,15.456788 C19.2838075,16.6652848 20.3680606,17.5343571 20.7201323,18.8172121 C21.4948599,21.6404023 19.6905544,22.9853265 16.228738,23.6184049 C14.6509953,23.9061146 12.9893179,23.99595 10.5634678,23.9997206 C10.5054734,23.9998854 10.5054734,23.9998854 10.449322,23.9998517 C10.3928221,23.9998847 10.3928221,23.9998847 10.3358526,23.9998901 C7.9071796,23.9958793 6.24670578,23.9060729 4.66894417,23.6183597 C1.20737495,22.9853265 -0.596930528,21.6404023 0.177800598,18.8171995 C0.529868809,17.5343571 1.61412184,16.6652848 3.82623101,15.4567463 C4.56213309,15.0548679 4.63563283,15.0154203 5.02523691,14.8223593 C5.26563623,14.7032339 5.49604119,14.5953363 5.7170243,14.4994322 C5.82267443,14.4535812 5.9257029,14.4106836 6.02637052,14.3707419 C6.06798673,14.3543606 6.06798673,14.3543606 6.10965063,14.338286 C6.13164386,14.3298346 6.46293346,14.2055124 6.55809967,14.167792 C7.18813231,13.9180703 7.44499082,13.7003424 7.47885363,13.3538815 C7.50604172,13.0743716 7.4311538,12.8658784 7.20919089,12.5597075 C7.13505221,12.4574422 6.81353452,12.0542103 6.75033918,11.9707957 C6.72053419,11.9312838 6.72053419,11.9312838 6.69064844,11.8908867 C5.26880016,9.96039521 4.53546867,7.91361917 4.70216518,5.4523143 C4.89591372,2.6017479 7.44191139,0.116348494 10.2979908,0.00686730352 C10.3366656,0.00236351643 10.3808099,0.00100076545 10.4431329,0.000377295888 C10.5058456,-0.000111005004 10.5058456,-0.000111005004 10.5621926,0.000294495297 C13.456904,0.116695456 16.0020678,2.60251429 16.1957642,5.4523143 Z"/>
</svg>
