<?xml version="1.0" encoding="UTF-8"?>
<svg width="21px" height="24px" viewBox="0 0 21 24" version="1.1" xmlns="http://www.w3.org/2000/svg" xmlns:xlink="http://www.w3.org/1999/xlink">
    <!-- Generator: Sketch 52.3 (67297) - http://www.bohemiancoding.com/sketch -->
    <title>MyVibes</title>
    <desc>Created with Sketch.</desc>
    <g id="production" stroke="none" stroke-width="1" fill="none" fill-rule="evenodd">
        <g id="icons" transform="translate(-178.000000, -21.000000)" stroke="#666666">
            <path d="M188.589089,22.0034629 C191.138207,22.1025041 193.352715,24.3115661 193.519779,26.7695326 C193.693307,29.3317089 192.73174,31.2246237 191.709826,32.6121114 C191.262973,33.2194129 190.793813,33.6099701 190.864962,34.3414238 C190.949495,35.206312 191.884997,35.4474225 192.55422,35.7124353 C193.347894,36.0273409 194.201446,36.5056169 194.605563,36.7263061 C195.994962,37.4853749 197.520555,38.3982996 197.863385,39.6474795 C198.62348,42.4173497 196.059302,43.255783 193.94268,43.6428594 C192.20199,43.9602834 190.249728,43.9972879 188.607404,43.999842 C188.571763,44 188.53596,43.9999885 188.5,43.9999628 C188.46404,43.9999885 188.428237,44 188.392596,44 C186.750272,43.9972879 184.79801,43.9602834 183.05732,43.6428594 C180.940698,43.255783 178.37652,42.4173497 179.136615,39.6474795 C179.479445,38.3982996 181.005038,37.4853749 182.394437,36.7263061 C182.798554,36.5056169 183.652106,36.0273409 184.44578,35.7124353 C185.115003,35.4474225 186.050505,35.206312 186.135038,34.3414238 C186.206187,33.6099701 185.737027,33.2194129 185.290174,32.6121114 C184.26826,31.2246237 183.306693,29.3317089 183.480221,26.7695326 C183.647285,24.3115661 185.861793,22.1025041 188.410911,22.0034629 C188.410911,22.0023083 188.410911,22.001154 188.410911,22 C188.440648,22 188.470345,22.0002897 188.5,22.0008662 C188.529655,22.0002897 188.559352,22 188.589089,22 C188.589089,22.001154 188.589089,22.0023083 188.589089,22.0034629 Z" id="MyVibes"></path>
        </g>
    </g>
</svg>