<svg xmlns="http://www.w3.org/2000/svg" width="6" height="5" viewBox="0 0 6 5">
  <path fill="#717171" fill-rule="evenodd" d="M0,4.56603774 C0.26706365,4.48427632 0.519286647,4.37106991 0.756676558,4.22641509 C0.994066469,4.08176028 1.20177953,3.91352297 1.37982196,3.72169811 C1.55786439,3.52987325 1.69732887,3.32390047 1.79821958,3.10377358 C1.8991103,2.8836467 1.9495549,2.65723387 1.9495549,2.4245283 C1.9495549,2.28616283 1.92284893,2.16509486 1.8694362,2.06132075 C1.81602347,1.95754665 1.7477749,1.90566038 1.66468843,1.90566038 C1.59347145,1.90566038 1.53412487,1.92138349 1.48664688,1.95283019 C1.4391689,1.98427689 1.3887243,2.01886774 1.33531157,2.05660377 C1.28189884,2.09433981 1.22106859,2.12893066 1.15281899,2.16037736 C1.08456939,2.19182406 0.994065846,2.20754717 0.881305638,2.20754717 C0.762610682,2.20754717 0.649852166,2.18081788 0.543026706,2.12735849 C0.436201246,2.0738991 0.342730371,1.99842816 0.262611276,1.9009434 C0.182492181,1.80345863 0.118694599,1.69025222 0.0712166172,1.56132075 C0.023738635,1.43238929 0,1.29245358 0,1.14150943 C0,0.977986604 0.0311569585,0.825472406 0.0934718101,0.683962264 C0.155786662,0.542452123 0.243322878,0.421384151 0.356083086,0.320754717 C0.468843294,0.220125283 0.597922122,0.141509717 0.743323442,0.0849056604 C0.888724763,0.0283016038 1.04747688,0 1.21958457,0 C1.43917024,0 1.64391596,0.0518862736 1.83382789,0.155660377 C2.02373982,0.259434481 2.18991027,0.4009425 2.33234421,0.580188679 C2.47477816,0.759434858 2.58605301,0.966979953 2.66617211,1.20283019 C2.7462912,1.43868042 2.78635015,1.69182255 2.78635015,1.96226415 C2.78635015,2.38993925 2.71068325,2.78301708 2.55934718,3.14150943 C2.40801111,3.50000179 2.20623272,3.81289175 1.95400593,4.08018868 C1.70177915,4.34748561 1.40652988,4.56131995 1.06824926,4.72169811 C0.729968635,4.88207627 0.37388911,4.97484264 0,5 L0,4.56603774 Z M3.21364985,4.56603774 C3.48664825,4.48427632 3.74183858,4.37106991 3.97922849,4.22641509 C4.2166184,4.08176028 4.42284779,3.91352297 4.59792285,3.72169811 C4.77299791,3.52987325 4.91097872,3.32390047 5.01186944,3.10377358 C5.11276015,2.8836467 5.16320475,2.65723387 5.16320475,2.4245283 C5.16320475,2.28616283 5.13798245,2.16509486 5.08753709,2.06132075 C5.03709174,1.95754665 4.97032682,1.90566038 4.88724036,1.90566038 C4.81602338,1.90566038 4.7566768,1.92138349 4.70919881,1.95283019 C4.66172083,1.98427689 4.61127623,2.01886774 4.5578635,2.05660377 C4.50445077,2.09433981 4.44362052,2.12893066 4.37537092,2.16037736 C4.30712132,2.19182406 4.21661777,2.20754717 4.10385757,2.20754717 C3.97922786,2.20754717 3.86350202,2.18081788 3.75667656,2.12735849 C3.6498511,2.0738991 3.55638022,1.99842816 3.47626113,1.9009434 C3.39614203,1.80345863 3.33234445,1.69025222 3.28486647,1.56132075 C3.23738849,1.43238929 3.21364985,1.29245358 3.21364985,1.14150943 C3.21364985,0.977986604 3.24629047,0.825472406 3.3115727,0.683962264 C3.37685493,0.542452123 3.46439114,0.421384151 3.57418398,0.320754717 C3.68397681,0.220125283 3.81305564,0.141509717 3.96142433,0.0849056604 C4.10979303,0.0283016038 4.27002881,0 4.4421365,0 C4.66172217,0 4.86646789,0.0518862736 5.05637982,0.155660377 C5.24629175,0.259434481 5.41097853,0.4009425 5.5504451,0.580188679 C5.68991168,0.759434858 5.79970286,0.966979953 5.87982196,1.20283019 C5.95994105,1.43868042 6,1.69182255 6,1.96226415 C6,2.38993925 5.92581677,2.78301708 5.77744807,3.14150943 C5.62907938,3.50000179 5.42730098,3.81289175 5.17210682,4.08018868 C4.91691267,4.34748561 4.62017973,4.56131995 4.28189911,4.72169811 C3.94361849,4.88207627 3.58753896,4.97484264 3.21364985,5 L3.21364985,4.56603774 Z" transform="rotate(180 3 2.5)"/>
</svg>
