<svg xmlns="http://www.w3.org/2000/svg" width="11" height="11" viewBox="0 0 11 11">
  <path fill="#717171" d="M5.5,11 C2.46243388,11 0,8.53756612 0,5.5 C0,2.46243388 2.46243388,0 5.5,0 C8.53756612,0 11,2.46243388 11,5.5 C11,8.53756612 8.53756612,11 5.5,11 Z M5.5,10 C7.98528137,10 10,7.98528137 10,5.5 C10,3.01471863 7.98528137,1 5.5,1 C3.01471863,1 1,3.01471863 1,5.5 C1,7.98528137 3.01471863,10 5.5,10 Z M5.5,7.5 C4.3954305,7.5 3.5,6.6045695 3.5,5.5 C3.5,4.3954305 4.3954305,3.5 5.5,3.5 C6.6045695,3.5 7.5,4.3954305 7.5,5.5 C7.5,6.6045695 6.6045695,7.5 5.5,7.5 Z"/>
</svg>
