<svg xmlns="http://www.w3.org/2000/svg" width="24" height="24" viewBox="0 0 24 24">
  <path fill="#666" d="M18.8401291,20.2836492 C18.4403624,19.8838826 18.4403624,19.2357328 18.8401291,18.8359661 C19.2398958,18.4361994 19.8880456,18.4361994 20.2878122,18.8359661 L22.704338,21.2524919 C23.1041047,21.6522585 23.1041047,22.3004084 22.704338,22.700175 C22.3045714,23.0999417 21.6564215,23.0999417 21.2566549,22.700175 L18.8401291,20.2836492 Z M11.260332,22.5206641 C5.04142238,22.5206641 0,17.4792417 0,11.260332 C0,5.04142238 5.04142238,0 11.260332,0 C17.4792417,0 22.5206641,5.04142238 22.5206641,11.260332 C22.5206641,17.4792417 17.4792417,22.5206641 11.260332,22.5206641 Z M11.260332,21.4969975 C16.9138863,21.4969975 21.4969975,16.9138863 21.4969975,11.260332 C21.4969975,5.6067778 16.9138863,1.02366655 11.260332,1.02366655 C5.6067778,1.02366655 1.02366655,5.6067778 1.02366655,11.260332 C1.02366655,16.9138863 5.6067778,21.4969975 11.260332,21.4969975 Z"/>
</svg>
