<svg xmlns="http://www.w3.org/2000/svg" width="19" height="20" viewBox="0 0 19 20">
  <path fill="#717171" d="M8.20441709,2.47145273e-14 C7.37824683,2.47145273e-14 6.6929062,0.689978186 6.6929062,1.52173897 L6.6929062,2.4796193 C5.82629223,2.80791709 5.0503905,3.30098877 4.3581617,3.89266262 L3.50119981,3.41711919 C2.7780714,3.01334532 1.84356878,3.28124312 1.44310477,4.00815174 L0.18801093,6.29076019 C-0.210466527,7.01408402 0.0437264188,7.9581687 0.768323146,8.36277083 L1.62528502,8.84510773 C1.57069788,9.22538813 1.51058294,9.6053707 1.51058294,10.0000011 C1.51058294,10.3964793 1.57693826,10.772914 1.63204363,11.1548923 L0.768323146,11.6372183 C0.0437264188,12.041827 -0.210466527,12.9791095 0.18801093,13.7024355 L1.44310477,15.9850439 C1.84356878,16.7119569 2.77804981,16.9866525 3.50119981,16.5828699 L4.36492031,16.1005439 C5.05615584,16.6905873 5.82799807,17.1859351 6.6929062,17.5135872 L6.6929062,18.478261 C6.6929062,19.3100218 7.37824683,20 8.20441709,20 L10.7955786,20 C11.6217489,20 12.3070895,19.3100218 12.3070895,18.478261 L12.3070895,17.5135872 C13.1719976,17.1859351 13.9438183,16.6905873 14.6350754,16.1005439 L15.4987959,16.5828699 C16.2219027,16.9866525 17.1564483,16.7119569 17.5568907,15.9850439 L18.8119846,13.7024355 C19.210462,12.9791095 18.9562907,12.041827 18.2316724,11.6372183 L17.3679518,11.1548923 C17.4230572,10.772914 17.4894125,10.3964793 17.4894125,10.0000011 C17.4894125,9.6053707 17.429276,9.22538813 17.3747105,8.84510773 L18.2316724,8.36277083 C18.9562907,7.9581687 19.210462,7.01408402 18.8119846,6.29076019 L17.5568907,4.00815174 C17.1564483,3.28124312 16.2219027,3.01334532 15.4987959,3.41711919 L14.641834,3.89266262 C13.9496268,3.30099095 13.1737035,2.80791926 12.3070895,2.4796193 L12.3070895,1.52173897 C12.3070895,0.689978186 11.6217489,0 10.7955786,0 L8.20441709,0 Z M8.20441709,1.30434768 L10.7955786,1.30434768 C10.9264107,1.30434768 11.0115087,1.39001724 11.0115087,1.52173897 L11.0115087,2.93478229 C11.013884,3.21003878 11.2088257,3.4726931 11.4703603,3.55298874 C12.4837419,3.86609523 13.3887483,4.4195343 14.1357586,5.14266248 C14.3342631,5.33756681 14.6631679,5.3811342 14.904988,5.24456465 L16.1331122,4.55842342 C16.2468858,4.49488864 16.3595366,4.52428429 16.4232575,4.63994515 L17.6783514,6.9225536 C17.7440589,7.04179923 17.7096829,7.15876009 17.5973776,7.22146661 L16.369275,7.90760784 C16.1318814,8.04197304 15.9973354,8.33874909 16.0521384,8.60733602 C16.1452475,9.05486858 16.1938318,9.5220881 16.1938318,10.0000011 C16.1938318,10.4778923 16.1452475,10.9383488 16.0521384,11.3858705 C15.9942692,11.656414 16.129355,11.9573052 16.369275,12.0923922 L17.5973776,12.7785225 C17.7096829,12.8412399 17.7440589,12.9514138 17.6783514,13.0706529 L16.4232575,15.3532614 C16.3595366,15.4689135 16.2468642,15.5051092 16.1331122,15.4415657 L14.904988,14.7554354 C14.6645498,14.617131 14.3358394,14.6577832 14.1357586,14.850544 C13.3887699,15.5736744 12.4837419,16.1271091 11.4703603,16.4402178 C11.206688,16.5211743 11.0110337,16.787696 11.0115087,17.0652177 L11.0115087,18.478261 C11.0115087,18.6099784 10.9264107,18.6956523 10.7955786,18.6956523 L8.20441709,18.6956523 C8.07358502,18.6956523 7.98848696,18.6099784 7.98848696,18.478261 L7.98848696,17.0652177 C7.98848696,16.787696 7.79330772,16.5211743 7.52963544,16.4402178 C6.51627535,16.1271091 5.61120423,15.5736527 4.86423714,14.850544 C4.66415628,14.6577832 4.33544585,14.617131 4.09500765,14.7554354 L2.86688346,15.4415657 C2.75308829,15.5051092 2.64045913,15.4689135 2.57673815,15.3532614 L1.32164407,13.0706529 C1.25595813,12.9514138 1.29031261,12.8412399 1.40261787,12.7785225 L2.63072068,12.0923922 C2.87064065,11.957327 3.00570494,11.656414 2.94785726,11.3858705 C2.8547266,10.9383488 2.80616391,10.4778923 2.80616391,10.0000011 C2.80616391,9.5220881 2.85470501,9.05486858 2.94785726,8.60733602 C3.00263874,8.33874475 2.86813586,8.04196869 2.63072068,7.90760784 L1.40261787,7.22146661 C1.29031261,7.15876009 1.25595813,7.04179923 1.32164407,6.9225536 L2.57673815,4.63994515 C2.64045913,4.52428429 2.75308829,4.49488864 2.86688346,4.55842342 L4.09500765,5.24456465 C4.3368278,5.3811342 4.66573257,5.33756681 4.86423714,5.14266248 C5.61120423,4.4195343 6.51627535,3.86609306 7.52963544,3.55298874 C7.79117001,3.4726931 7.98611173,3.21003878 7.98848696,2.93478229 L7.98848696,1.52173897 C7.98848696,1.39001724 8.07358502,1.30434768 8.20441709,1.30434768 Z M9.49999785,5.43478202 C7.00332735,5.43478202 4.96546518,7.48640571 4.96546518,10.0000011 C4.96546518,12.513566 7.00332735,14.565218 9.49999785,14.565218 C11.9966899,14.565218 14.0345305,12.513566 14.0345305,10.0000011 C14.0345305,7.48640788 11.9966899,5.43478202 9.49999785,5.43478202 Z M9.49999785,6.7391297 C11.2964933,6.7391297 12.7389498,8.19132085 12.7389498,10.0000011 C12.7389498,11.8086313 11.2964933,13.2608703 9.49999785,13.2608703 C7.70350238,13.2608703 6.26104594,11.8086313 6.26104594,10.0000011 C6.26104594,8.19131867 7.70350238,6.7391297 9.49999785,6.7391297 Z"/>
</svg>
