<svg xmlns="http://www.w3.org/2000/svg" width="53" height="9" viewBox="0 0 53 9">
  <g fill="none" fill-rule="evenodd">
    <polygon fill="#717171" points="4.5 7.881 1.719 9 1.872 5.873 0 3.438 2.876 2.624 4.5 0 6.124 2.624 9 3.438 7.128 5.873 7.281 9"/>
    <polygon fill="#717171" points="15.5 7.881 12.719 9 12.872 5.873 11 3.438 13.876 2.624 15.5 0 17.124 2.624 20 3.438 18.128 5.873 18.281 9"/>
    <polygon fill="#717171" points="26.5 7.881 23.719 9 23.872 5.873 22 3.438 24.876 2.624 26.5 0 28.124 2.624 31 3.438 29.128 5.873 29.281 9"/>
    <polygon fill="#717171" points="37.5 7.881 34.719 9 34.872 5.873 33 3.438 35.876 2.624 37.5 0 39.124 2.624 42 3.438 40.128 5.873 40.281 9"/>
    <polygon fill="#717171" points="48.5 7.881 45.719 9 45.872 5.873 44 3.438 46.876 2.624 48.5 0 50.124 2.624 53 3.438 51.128 5.873 51.281 9"/>
  </g>
</svg>
