<?xml version="1.0" encoding="UTF-8"?>
<svg width="54px" height="9px" viewBox="0 0 54 9" version="1.1" xmlns="http://www.w3.org/2000/svg" xmlns:xlink="http://www.w3.org/1999/xlink">
    <!-- Generator: Sketch 52.3 (67297) - http://www.bohemiancoding.com/sketch -->
    <title>Stars_s</title>
    <desc>Created with Sketch.</desc>
    <g id="production" stroke="none" stroke-width="1" fill="none" fill-rule="evenodd">
        <g id="icons" transform="translate(-224.000000, -95.000000)" fill="#717171">
            <path d="M229,102.920271 L226.061074,104.045085 L226.222658,100.902413 L224.244717,98.454915 L227.283508,97.6374514 L229,95 L230.716492,97.6374514 L233.755283,98.454915 L231.777342,100.902413 L231.938926,104.045085 L229,102.920271 Z M240,102.920271 L237.061074,104.045085 L237.222658,100.902413 L235.244717,98.454915 L238.283508,97.6374514 L240,95 L241.716492,97.6374514 L244.755283,98.454915 L242.777342,100.902413 L242.938926,104.045085 L240,102.920271 Z M251,102.920271 L248.061074,104.045085 L248.222658,100.902413 L246.244717,98.454915 L249.283508,97.6374514 L251,95 L252.716492,97.6374514 L255.755283,98.454915 L253.777342,100.902413 L253.938926,104.045085 L251,102.920271 Z M262,102.920271 L259.061074,104.045085 L259.222658,100.902413 L257.244717,98.454915 L260.283508,97.6374514 L262,95 L263.716492,97.6374514 L266.755283,98.454915 L264.777342,100.902413 L264.938926,104.045085 L262,102.920271 Z M273,102.920271 L270.061074,104.045085 L270.222658,100.902413 L268.244717,98.454915 L271.283508,97.6374514 L273,95 L274.716492,97.6374514 L277.755283,98.454915 L275.777342,100.902413 L275.938926,104.045085 L273,102.920271 Z" id="Stars_s"></path>
        </g>
    </g>
</svg>